<svg width="285" height="262" viewBox="0 0 285 262" fill="none" xmlns="http://www.w3.org/2000/svg">
<path d="M142.332 260.502L135.958 260.389L130.291 260.109L127.121 259.733L124.453 259.192L121.83 258.426L118.256 257.114L114.919 255.962L112.871 255.49L110.99 255.276L108.916 255.272L106.247 255.509L102.218 255.872L100.452 255.793L99.1297 255.529L97.9987 255.098L96.9494 254.464L95.9917 253.621L95.1297 252.576L94.2883 251.219L93.3542 249.263L90.8954 243.73L90.1296 242.741L89.418 242.153L88.6003 241.767L87.6643 241.594L86.6029 241.634L85.2586 241.92L83.4154 242.565L80.24 243.972L76.5431 245.563L74.7078 246.138L73.3698 246.363L72.3294 246.345L71.4363 246.098L70.8033 245.688L70.3024 245.09L69.9392 244.303L69.6912 243.152L69.627 241.769L69.7602 239.941L70.1835 237.376L71.0707 233.534L72.2989 228.193L72.4908 226.405L72.4036 225.323L72.1308 224.641L71.7491 224.256L71.2184 224.043L70.5346 224.001L69.5108 224.17L68.0449 224.649L65.7693 225.649L61.5637 227.789L55.7185 230.726L52.7164 231.977L50.8884 232.533L49.5677 232.744L48.6723 232.708L47.9845 232.465L47.5938 232.117L47.3507 231.63L47.258 231.004L47.3541 230.032L47.773 228.602L48.5032 226.912L49.703 224.666L51.6782 221.467L54.9855 216.609L59.5014 209.973L60.567 208.023L60.9415 206.924L60.9361 206.269L60.7096 205.921L60.2786 205.731L59.6409 205.697L58.5555 205.866L56.846 206.356L53.9415 207.432L47.5715 210.091L40.0596 213.16L35.8929 214.633L33.1213 215.402L31.2021 215.723L29.9872 215.721L29.2938 215.53L28.8634 215.167L28.7186 214.779L28.7665 214.112L29.0894 213.277L29.8701 212.009L31.328 210.19L33.6621 207.727L36.9817 204.592L41.691 200.467L52.3135 191.273L53.716 189.713L54.149 188.917L54.1261 188.48L53.8863 188.268L53.2667 188.138L52.0149 188.211L49.843 188.615L45.9334 189.607L24.9689 195.275L20.9875 196.048L18.2276 196.379L16.4959 196.385L15.5288 196.2L15.0634 195.947L14.8286 195.596L14.8282 195.148L15.0631 194.605L15.7382 193.738L16.8143 192.719L18.6875 191.253L21.6224 189.26L25.8005 186.704L31.899 183.256L48.5789 174.038L49.9854 172.949L50.3536 172.42L50.3165 172.127L50.0063 171.921L49.1692 171.778L47.459 171.796L44.4991 172.069L37.7396 172.976L22.6842 175.042L16.319 175.694L11.6305 175.954L9.00093 175.918L7.09477 175.678L6.14538 175.334L5.78776 174.987L5.74141 174.566L6.00824 174.072L6.58562 173.509L7.82555 172.66L10.0872 171.459L13.726 169.853L18.9783 167.834L25.7924 165.462L38.4397 161.353L44.8101 159.189L47.2372 158.186L48.298 157.528L48.486 157.21L48.4201 157.027L48.0333 156.798L46.986 156.567L44.8562 156.384L40.4933 156.28L26.3825 156.309L16.7586 156.185L10.7288 155.912L6.48533 155.523L3.81512 155.081L2.33701 154.651L1.6432 154.286L1.31923 153.887L1.3122 153.604L1.47304 153.308L2.02703 152.842L2.94903 152.353L4.72628 151.674L7.75679 150.796L12.3996 149.726L18.8203 148.501L27.7773 147.03L44.7692 144.303L47.1008 143.688L47.814 143.301L47.887 143.017L47.5603 142.734L46.5115 142.354L44.2599 141.861L39.547 141.112L13.4033 137.283L7.61066 136.105L4.425 135.263L2.57654 134.606L1.41829 133.975L1.02753 133.526L1.00001 133.241L1.15989 132.968L1.74893 132.583L2.74851 132.233L4.69051 131.822L8.01106 131.403L13.0886 131.04L20.0606 130.793L30.6788 130.679L44.5119 130.555L47.4305 130.332L48.4738 130.083L48.7544 129.835L48.6988 129.636L48.2524 129.288L46.9947 128.722L44.4215 127.851L38.3351 126.091L19.1118 120.657L12.5766 118.562L8.09592 116.903L5.43384 115.686L4.11984 114.854L3.64547 114.327L3.57979 114.024L3.71624 113.763L4.0543 113.545L4.93387 113.298L6.77617 113.122L9.32764 113.117L13.3831 113.335L19.2317 113.879L27.9462 114.937L49.1339 117.656L50.846 117.621L51.2678 117.442L51.2908 117.253L51.107 117.005L50.4489 116.524L48.8832 115.678L45.1939 113.988L35.3138 109.809L23.8736 104.888L17.2807 101.831L12.7812 99.508L10.1558 97.9026L8.91617 96.8895L8.52617 96.3075L8.5303 96.0093L8.74697 95.7849L9.17497 95.6355L10.2056 95.5521L12.2727 95.6994L15.0639 96.1274L19.4162 97.0148L25.5712 98.4928L34.5106 100.872L52.4944 105.729L54.5449 106.055L55.1524 106L55.2896 105.852L55.2119 105.614L54.6961 105.086L53.2889 104.064L49.776 101.888L40.1074 96.3019L29.9223 90.3425L23.4737 86.338L19.1372 83.3835L16.694 81.4371L15.6345 80.2948L15.3988 79.706L15.5139 79.4469L15.8468 79.2966L16.749 79.2757L18.1181 79.497L20.6198 80.152L24.6946 81.494L30.6403 83.723L39.4815 87.3183L58.158 95.0309L59.9845 95.5161L60.4392 95.4493L60.4695 95.2487L60.1082 94.711L58.891 93.5567L56.2827 91.4479L49.1928 86.105L37.5751 77.3444L31.3679 72.4039L27.2362 68.8254L25.331 66.9451L24.2192 65.5564L23.943 64.8698L24.0317 64.5892L24.3394 64.453L24.8637 64.4617L26.0461 64.7431L28.3191 65.6008L32.1459 67.3768L37.8504 70.3426L45.3532 74.5147L65.0415 85.6162L66.2877 86.0627L66.6595 85.9858L66.6365 85.7325L66.2009 85.0485L64.9022 83.5816L61.5816 80.2879L40.299 59.7554L37.049 56.2449L34.8464 53.5394L33.9655 52.078L33.8571 51.4344L34.0533 51.2293L34.4637 51.2056L35.4725 51.5076L36.9328 52.204L39.5214 53.7056L43.6264 56.3846L49.448 60.4754L58.7845 67.3686L70.3927 75.9588L72.6523 77.3987L73.4033 77.7118L73.6422 77.6772L73.6708 77.4441L73.3245 76.7224L72.1673 75.0823L69.1099 71.2965L51.0501 49.565L47.442 44.7267L45.8277 42.2649L44.9616 40.5528L44.8388 39.8095L45.0141 39.5828L45.3948 39.5738L45.9777 39.7818L47.2179 40.4922L49.5053 42.143L53.233 45.2007L58.6185 49.9719L66.409 57.2188L78.8134 68.8071L80.6888 70.255L81.2306 70.4534L81.343 70.2937L81.2577 69.8989L80.7688 68.871L79.4843 66.7216L75.7747 61.0983L64.1552 43.7098L60.3892 37.6663L58.1155 33.6412L57.0262 31.3178L56.6861 30.1787L56.6967 29.7258L56.8997 29.5248L57.2941 29.5775L57.8763 29.8827L59.0882 30.802L61.2857 32.8373L64.8168 36.5095L69.8462 42.1265L76.983 50.4643L86.904 62.0712L88.7586 63.9238L89.3363 64.2678L89.4927 64.1618L89.4673 63.7852L89.0973 62.7187L88.0239 60.4017L85.3604 55.2441L74.8112 35.1515L71.7112 28.7159L69.9634 24.5893L69.2528 22.3569L69.1613 21.39L69.317 21.1L69.6462 21.0984L70.1463 21.3847L71.2049 22.3425L73.1472 24.5495L75.6083 27.6948L79.2255 32.6568L84.7797 40.679L96.2751 57.475L97.4591 58.8632L97.9253 59.1329L98.0331 58.9331L97.8965 58.0646L97.1883 55.881L95.1595 50.65L85.6107 26.7042L83.6664 21.2051L82.439 17.0726L82.1127 15.4107L82.1188 14.4326L82.3116 14.1768L82.6548 14.2429L83.1454 14.6294L84.1459 15.7948L85.9298 18.3722L88.7533 23.0024L92.7075 30.017L98.8304 41.4397L104.638 52.207L106.139 54.5676L106.633 55.024L106.791 54.9095L106.813 54.4586L106.601 53.1627L105.899 50.3425L103.757 42.8922L98.5686 24.9885L96.6213 17.4735L95.5957 12.6604L95.2718 10.102L95.3471 9.04703L95.5526 8.77782L95.8816 8.86143L96.3311 9.29631L97.2205 10.5902L98.7686 13.4328L101.172 18.5113L104.482 26.1491L109.503 38.4051L113.815 48.8212L115.098 51.4016L115.543 51.903L115.705 51.7811L115.759 51.2932L115.651 49.8899L115.02 45.8877L112.896 34.6797L110.447 21.4377L109.199 13.5649L108.63 8.58002L108.561 6.0008L108.752 5.00639L108.997 4.81443L109.334 5.00389L109.759 5.57162L110.554 7.11006L111.871 10.3458L113.834 15.9752L116.444 24.2564L121.009 39.7047L123.402 47.4223L124.166 49.3147L124.537 49.7344L124.689 49.5231L124.782 48.4745L124.677 45.7735L124.137 39.3147L122.163 17.1656L121.734 9.41522L121.701 5.58217L121.902 3.13614L122.093 2.4905L122.344 2.24726L122.653 2.41086L123.017 2.97869L123.659 4.56531L124.664 7.94815L126.095 13.867L127.925 22.5765L132.94 47.5191L133.31 48.3785L133.505 48.4342L133.662 48.0726L133.831 46.7614L133.954 43.6633L133.992 35.1961L134.044 18.1932L134.283 9.78185L134.657 4.54166L135.076 1.94919L135.456 1.07189L135.737 1.0194L136.037 1.39561L136.354 2.19415L136.853 4.15096L137.546 8.04505L138.418 14.5662L139.414 23.8214L141.699 46.4026L142.087 47.9188L142.276 48.0296L142.466 47.7026L142.756 46.4054L143.166 43.2619L143.994 34.5927L145.639 17.2868L146.662 8.91248L147.35 4.70767L148.012 1.99228L148.474 1.064L148.76 0.999994L149.026 1.38337L149.268 2.20757L149.583 4.23551L149.91 8.2759L150.168 15.0317L150.292 24.5714L150.448 46.5513L150.684 48.2465L150.858 48.4236L151.073 48.146L151.479 46.8915L152.178 43.7503L153.813 34.9807L157.068 17.5365L158.854 9.26694L159.911 5.24224L160.591 3.24813L161.152 2.2373L161.452 2.13529L161.688 2.4956L161.858 3.31212L161.991 5.35667L161.945 9.46575L161.574 16.3589L160.806 26.0789L158.979 47.9911L159.041 49.2764L159.182 49.5583L159.408 49.3727L159.91 48.2299L160.881 45.1884L163.311 36.4818L168.172 19.0632L170.311 12.1006L171.784 7.86489L172.942 5.20592L173.379 4.54409L173.713 4.35022L173.84 4.43079L174.012 4.94565L174.074 5.92337L173.967 8.21406L173.473 12.6371L172.393 19.8486L170.382 31.4191L167.342 48.6089L167.126 50.8948L167.199 51.3458L167.284 51.3931L167.553 51.1307L168.202 49.8621L169.513 46.6491L172.841 37.7155L178.743 21.9555L181.524 15.053L183.383 10.886L184.474 8.79982L185.258 7.72472L185.595 7.5997L185.778 7.95443L185.806 8.7829L185.563 10.8758L184.742 15.0931L183.063 22.1479L180.469 31.997L175.174 51.769L174.898 53.644L175.015 53.8723L175.31 53.6202L176.086 52.3603L177.713 49.1531L182.607 38.7557L189.257 24.7837L192.609 18.186L194.76 14.3444L195.953 12.5423L196.519 11.9123L196.889 11.7592L196.999 11.8635L197.067 12.4322L196.934 13.4708L196.371 15.8608L195.006 20.4131L192.529 27.7326L188.365 39.2241L182.839 54.4727L182.285 56.5823L182.331 56.932L182.438 56.9264L182.821 56.5562L183.815 55.1289L186.503 50.6553L201.435 25.0738L204.848 19.8257L206.334 17.836L207.313 16.8585L207.663 16.7997L207.744 16.9505L207.718 17.6094L207.219 19.4617L206.2 22.2684L204.145 27.2515L200.769 34.8392L194.137 49.068L190.027 58.0768L189.27 60.187L189.284 60.5428L189.394 60.5418L189.818 60.1843L190.961 58.7857L194.103 54.395L210.469 30.9377L214.465 25.7121L216.653 23.2406L217.341 22.6712L217.738 22.5707L217.825 22.6982L217.775 23.3066L217.43 24.3747L216.385 26.786L214.116 31.3117L210.226 38.4803L203.109 50.9879L197.032 61.7219L195.891 64.083L195.778 64.5836L195.841 64.6585L196.209 64.4578L197.359 63.3021L199.936 60.2977L208.96 49.2221L217.023 39.469L222.019 33.7276L225.005 30.5943L226.471 29.3216L227.037 29.035L227.192 29.0648L227.26 29.2106L227.135 29.8468L226.669 30.9307L225.362 33.3408L222.622 37.8138L218.021 44.8259L209.789 56.8691L203.036 66.8478L201.911 68.8549L201.884 69.1888L202.226 69.0676L203.427 68.0524L206.231 65.2693L214.965 56.1324L225.175 45.5809L230.643 40.2245L233.835 37.3815L235.334 36.3054L235.859 36.1353L235.975 36.2182L235.91 36.719L235.454 37.6573L234.071 39.8365L231.066 43.9934L225.926 50.6252L217.734 60.7817L208.868 71.8181L207.54 73.7805L207.481 74.117L207.608 74.1209L208.175 73.8028L209.788 72.542L214.301 68.6054L234.322 50.8487L239.815 46.3431L242.137 44.6422L243.564 43.8374L243.978 43.8295L244.02 43.9864L243.772 44.619L243.091 45.6642L241.304 47.9502L237.682 52.1361L231.744 58.6055L220.281 70.6651L214.095 77.2862L212.657 79.1041L212.613 79.3978L213.033 79.2752L214.521 78.3342L217.983 75.7978L244.434 55.877L248.442 53.205L250.375 52.1306L251.087 51.9043L251.263 51.9427L251.316 52.0825L251.057 52.6638L250.319 53.6361L248.365 55.7752L244.39 59.7042L237.871 65.7792L225.349 77.0509L218.711 83.1435L217.257 84.7517L217.277 84.9752L217.806 84.8089L219.532 83.8558L224.646 80.6199L246.273 66.6227L252.808 62.6976L256.292 60.873L257.633 60.4351L257.819 60.4767L257.871 60.6129L257.578 61.1666L256.762 62.0844L254.616 64.0939L250.268 67.7695L243.171 73.4243L228.404 84.7908L222.733 89.2871L221.498 90.445L221.348 90.7693L221.481 90.7955L222.16 90.5798L224.179 89.6157L229.903 86.5376L251.371 74.806L258.34 71.2818L262.045 69.6659L263.451 69.308L263.637 69.3608L263.68 69.5005L263.334 70.0374L262.425 70.9074L260.07 72.7888L255.339 76.1977L247.677 81.3965L225.29 96.3499L224.966 96.7462L225.026 96.8208L225.593 96.7252L227.528 95.9942L233.332 93.4169L257.467 82.4719L263.185 80.1055L267.079 78.7265L268.53 78.462L268.711 78.5288L268.739 78.6737L268.332 79.1946L267.324 80.0136L264.755 81.7555L259.648 84.872L251.45 89.5722L228.642 102.426L228.129 102.873L228.109 102.986L228.248 103.026L228.998 102.891L231.266 102.177L237.705 99.8339L259.576 91.7356L267.299 89.1342L271.37 88.0059L272.862 87.8367L273.039 87.9164L273.052 88.0644L272.588 88.5628L271.486 89.321L268.717 90.9034L263.258 93.6939L254.567 97.8506L231.576 108.634L230.738 109.255L230.792 109.335L231.402 109.31L233.537 108.826L239.965 107.008L264.363 99.9345L270.636 98.3227L274.893 97.4501L276.444 97.3716L276.623 97.4609L276.629 97.6082L276.126 98.0736L274.95 98.758L272.013 100.157L266.249 102.585L257.121 106.156L233.566 115.205L232.938 115.59L232.886 115.704L233.011 115.766L233.787 115.736L236.218 115.331L243.193 113.86L264.72 109.204L273.149 107.615L277.626 107.001L279.275 107.007L279.471 107.103L279.486 107.245L278.976 107.667L277.761 108.265L274.708 109.458L268.707 111.491L259.211 114.437L235.121 121.779L234.571 122.096L234.57 122.192L235.121 122.266L237.289 122.092L244.05 121.172L267.925 117.743L276.203 116.808L279.543 116.594L281.35 116.685L281.634 116.92L281.494 117.09L280.656 117.529L278.065 118.416L274.05 119.535L267.001 121.276L254.717 124.057L238.411 127.713L235.912 128.48L235.781 128.691L236.414 128.79L238.746 128.746L245.848 128.263L270.242 126.476L277 126.178L281.475 126.201L282.658 126.347L283.078 126.584L282.997 126.736L282.254 127.102L280.76 127.546L277.228 128.336L270.542 129.555L260.292 131.183L237.566 134.701L236.483 135.074L236.514 135.166L237.165 135.306L239.568 135.418L246.862 135.414L269.663 135.281L278.294 135.476L281.754 135.717L283.582 136.054L283.801 136.185L283.819 136.326L283.637 136.476L282.68 136.798L279.832 137.326L275.493 137.888L267.967 138.65L255.084 139.719L238.809 141.081L236.993 141.391L236.776 141.582L237.367 141.767L239.719 142.042L247.03 142.533L270.032 143.952L278.653 144.734L282.041 145.209L283.743 145.667L283.908 145.813L283.868 145.953L283.177 146.218L281.691 146.457L278.092 146.762L271.2 147.06L260.599 147.275L238.263 147.617L236.771 147.821L236.681 147.911L236.797 148.012L237.642 148.253L240.372 148.714L248.213 149.745L269.303 152.471L277.954 153.835L281.345 154.539L283.031 155.111L283.187 155.267L283.135 155.404L282.413 155.621L280.89 155.757L277.228 155.815L270.257 155.642L259.609 155.138L237.711 154.029L236.426 154.16L236.409 154.253L236.993 154.519L239.36 155.116L246.717 156.606L269.395 161.103L276.149 162.64L279.634 163.587L281.437 164.292L281.634 164.465L281.625 164.607L281.409 164.715L280.367 164.832L277.362 164.761L271.075 164.252L260.872 163.136L237.137 160.369L235.911 160.429L235.91 160.525L236.521 160.839L238.906 161.605L246.208 163.592L266.386 168.989L274.629 171.444L277.789 172.562L278.969 173.111L279.352 173.485L279.239 173.604L278.408 173.701L276.8 173.615L273.065 173.164L266.13 172.058L253.681 169.79L237.362 166.796L235.452 166.605L235.162 166.728L235.672 167.061L237.876 167.948L244.817 170.349L264.164 176.924L270.703 179.329L274.975 181.13L276.042 181.731L276.332 182.108L276.182 182.209L275.295 182.236L273.66 182.033L269.943 181.331L263.144 179.789L251.134 176.796L236.82 173.217L234.68 172.827L234.192 172.871L234.238 172.988L234.903 173.415L237.266 174.521L244.219 177.438L262.56 185.081L268.397 187.718L271.286 189.192L272.351 189.872L272.674 190.286L272.552 190.389L271.747 190.387L270.222 190.113L266.72 189.234L260.277 187.351L248.878 183.747L235.362 179.477L233.384 179.006L232.962 179.048L233.027 179.18L233.701 179.665L235.998 180.928L242.636 184.241L258.154 191.932L263.852 194.941L266.788 196.652L268.273 197.748L268.386 198.099L268.175 198.156L267.227 198.036L264.573 197.295L259.125 195.413L250.473 192.145L233.114 185.497L231.629 185.122L231.474 185.157L231.492 185.276L232.039 185.759L234.073 187.081L240.116 190.625L255.829 199.781L260.623 202.797L262.848 204.388L263.554 205.057L263.6 205.388L262.983 205.375L261.728 205.025L258.762 203.916L253.221 201.561L243.343 197.077L231.667 191.809L229.997 191.23L229.666 191.276L229.973 191.677L231.573 192.928L235.536 195.662L253.449 207.815L257.031 210.54L258.309 211.77L258.411 212.147L258.233 212.198L257.427 212.026L255.163 211.121L250.518 208.89L241.645 204.265L229.418 197.873L227.875 197.252L227.56 197.292L227.826 197.705L229.261 199.002L232.829 201.839L248.746 214.277L251.796 216.974L252.786 218.134L252.764 218.444L252.192 218.374L251.092 217.936L248.554 216.648L243.893 213.999L234.419 208.295L227.116 203.977L225.551 203.223L225.145 203.181L225.138 203.303L225.51 203.833L226.976 205.307L231.361 209.256L242.395 219.109L245.476 222.125L246.702 223.573L246.925 224.082L246.851 224.193L246.337 224.127L245.353 223.688L243.086 222.392L238.929 219.726L229.377 213.236L224.064 209.734L222.702 209.019L222.36 209.006L222.362 209.144L222.706 209.703L224.015 211.215L227.864 215.188L237.281 224.845L239.769 227.688L240.656 228.987L240.721 229.393L240.591 229.453L240.012 229.29L238.398 228.373L235.101 226.095L228.847 221.403L220.933 215.49L219.634 214.716L219.256 214.652L219.218 214.76L219.437 215.257L220.458 216.666L223.628 220.454L231.532 229.765L233.602 232.508L234.312 233.755L234.331 234.139L234.201 234.193L233.667 234.026L232.228 233.126L229.336 230.914L223.913 226.403L217.67 221.231L216.062 220.169L215.756 220.158L215.791 220.506L216.447 221.678L218.273 224.283L226.356 235.384L227.632 237.558L227.836 238.17L227.729 238.436L227.311 238.351L226.597 237.93L225.035 236.728L221.499 233.613L213.258 226.133L212.257 225.456L211.939 225.414L211.905 225.711L212.144 226.337L212.962 227.84L215.757 232.311L219.766 238.777L220.939 241.042L221.211 241.993L221.072 242.228L220.678 242.137L219.638 241.424L217.567 239.571L213.039 235.059L209.2 231.314L208.213 230.551L207.834 230.411L207.688 230.582L207.768 231.06L208.275 232.308L209.9 235.494L213.675 242.785L214.429 244.71L214.491 245.453L214.274 245.581L213.853 245.416L212.874 244.66L211.055 242.88L203.702 235.289L203.34 235.144L203.162 235.278L203.164 235.687L203.475 236.78L204.613 239.595L207.304 246.058L207.783 247.755L207.746 248.404L207.52 248.51L207.135 248.358L206.288 247.683L204.768 246.113L198.976 239.771L198.463 239.558L198.297 239.72L198.267 240.12L198.453 241.129L199.213 243.639L200.812 248.711L201.108 250.265L201.034 250.904L200.833 251.05L200.511 250.972L199.822 250.463L198.598 249.191L193.835 243.812L193.351 243.611L193.159 243.734L193.069 244.06L193.104 244.897L193.496 246.999L194.423 251.644L194.43 252.793L194.213 253.191L193.957 253.222L193.418 252.929L192.461 252.007L190.471 249.637L188.926 247.883L188.178 247.323L187.806 247.33L187.65 247.544L187.54 248.16L187.577 249.427L187.886 254.185L187.74 254.789L187.458 255.062L187.195 255.056L186.695 254.781L185.876 254.011L182.703 250.644L182.293 250.537L181.995 250.727L181.798 251.198L181.658 252.179L181.334 255.896L181.025 256.478L180.69 256.615L180.271 256.499L179.604 256.011L178.111 254.478L177.087 253.567L176.534 253.354L176.199 253.449L175.929 253.758L175.648 254.446L174.69 257.511L174.283 257.833L173.917 257.855L173.359 257.623L172.431 256.907L171.069 255.87L170.549 255.717L170.097 255.834L169.705 256.203L169.188 257.073L168.399 258.389L167.877 258.785L167.405 258.855L166.757 258.668L164.379 257.611L163.81 257.757L163.178 258.218L161.822 259.384L161.254 259.58L160.531 259.561L159.28 259.198L158.305 259.027L157.605 259.117L156.7 259.475L155.337 260.017L154.396 260.119L152.603 259.972L151.423 260.011L147.311 260.419L142.354 260.502" stroke="black" stroke-width="1.5" stroke-linecap="square"/>
</svg>
