<?xml version="1.0" encoding="UTF-8" standalone="no"?>
<!-- Created with Inkscape (http://www.inkscape.org/) -->

<svg
   xmlns:dc="http://purl.org/dc/elements/1.1/"
   xmlns:cc="http://creativecommons.org/ns#"
   xmlns:rdf="http://www.w3.org/1999/02/22-rdf-syntax-ns#"
   xmlns:svg="http://www.w3.org/2000/svg"
   xmlns="http://www.w3.org/2000/svg"
   xmlns:sodipodi="http://sodipodi.sourceforge.net/DTD/sodipodi-0.dtd"
   xmlns:inkscape="http://www.inkscape.org/namespaces/inkscape"
   width="100mm"
   height="200mm"
   viewBox="0 0 100 200"
   version="1.1"
   id="svg211"
   inkscape:version="0.92.5 (2060ec1f9f, 2020-04-08)"
   sodipodi:docname="panelfertig.svg"
   inkscape:export-filename="/home/sebi/Nextcloud/synth/02ladderfilter/panel/panelfertig.png"
   inkscape:export-xdpi="1000"
   inkscape:export-ydpi="1000">
  <defs
     id="defs205" />
  <sodipodi:namedview
     id="base"
     pagecolor="#ffffff"
     bordercolor="#666666"
     borderopacity="1.0"
     inkscape:pageopacity="1"
     inkscape:pageshadow="2"
     inkscape:zoom="3.959798"
     inkscape:cx="193.96438"
     inkscape:cy="651.75573"
     inkscape:document-units="mm"
     inkscape:current-layer="layer1"
     showgrid="true"
     inkscape:window-width="2560"
     inkscape:window-height="1277"
     inkscape:window-x="0"
     inkscape:window-y="41"
     inkscape:window-maximized="1">
    <inkscape:grid
       type="xygrid"
       id="grid213"
       units="mm"
       spacingx="0.99999999"
       spacingy="0.99999999"
       dotted="true" />
  </sodipodi:namedview>
  <metadata
     id="metadata208">
    <rdf:RDF>
      <cc:Work
         rdf:about="">
        <dc:format>image/svg+xml</dc:format>
        <dc:type
           rdf:resource="http://purl.org/dc/dcmitype/StillImage" />
        <dc:title></dc:title>
      </cc:Work>
    </rdf:RDF>
  </metadata>
  <g
     inkscape:label="Layer 1"
     inkscape:groupmode="layer"
     id="layer1"
     transform="translate(0,-97)">
    <text
       xml:space="preserve"
       style="font-style:normal;font-variant:normal;font-weight:normal;font-stretch:normal;font-size:7.05555534px;line-height:1.25;font-family:Shnobel;-inkscape-font-specification:'Shnobel, Normal';font-variant-ligatures:discretionary-ligatures;font-variant-caps:normal;font-variant-numeric:normal;font-feature-settings:normal, aart;text-align:start;letter-spacing:0px;word-spacing:0px;writing-mode:lr-tb;text-anchor:start;fill:#000000;fill-opacity:1;stroke:none;stroke-width:0.26458332"
       x="22.656218"
       y="108.21925"
       id="text137"><tspan
         sodipodi:role="line"
         id="tspan135"
         x="22.656218"
         y="108.21925"
         style="font-style:normal;font-variant:normal;font-weight:normal;font-stretch:normal;font-size:7.05555534px;font-family:Shnobel;-inkscape-font-specification:'Shnobel, Normal';font-variant-ligatures:discretionary-ligatures;font-variant-caps:normal;font-variant-numeric:normal;font-feature-settings:normal, aart;text-align:start;writing-mode:lr-tb;text-anchor:start;stroke-width:0.26458332">TRANSISTOR LADDER FILTER</tspan></text>
    <text
       xml:space="preserve"
       style="font-style:normal;font-variant:normal;font-weight:normal;font-stretch:normal;font-size:7.05555534px;line-height:1.25;font-family:Shnobel;-inkscape-font-specification:'Shnobel, Normal';font-variant-ligatures:discretionary-ligatures;font-variant-caps:normal;font-variant-numeric:normal;font-feature-settings:normal, aart;text-align:start;letter-spacing:0px;word-spacing:0px;writing-mode:lr-tb;text-anchor:start;fill:#000000;fill-opacity:1;stroke:none;stroke-width:0.26458332"
       x="19.025015"
       y="249.83871"
       id="text149"><tspan
         sodipodi:role="line"
         id="tspan147"
         x="19.025015"
         y="249.83871"
         style="font-style:normal;font-variant:normal;font-weight:normal;font-stretch:normal;font-size:7.05555534px;font-family:Shnobel;-inkscape-font-specification:'Shnobel, Normal';font-variant-ligatures:discretionary-ligatures;font-variant-caps:normal;font-variant-numeric:normal;font-feature-settings:normal, aart;text-align:start;writing-mode:lr-tb;text-anchor:start;stroke-width:0.26458332">DRIVE</tspan></text>
    <text
       xml:space="preserve"
       style="font-style:normal;font-variant:normal;font-weight:normal;font-stretch:normal;font-size:7.05555534px;line-height:1.25;font-family:Shnobel;-inkscape-font-specification:'Shnobel, Normal';font-variant-ligatures:discretionary-ligatures;font-variant-caps:normal;font-variant-numeric:normal;font-feature-settings:normal, aart;text-align:start;letter-spacing:0px;word-spacing:0px;writing-mode:lr-tb;text-anchor:start;fill:#000000;fill-opacity:1;stroke:none;stroke-width:0.26458332"
       x="82.950333"
       y="288.91843"
       id="text153"><tspan
         sodipodi:role="line"
         id="tspan151"
         x="82.950333"
         y="288.91843"
         style="font-style:normal;font-variant:normal;font-weight:normal;font-stretch:normal;font-size:7.05555534px;font-family:Shnobel;-inkscape-font-specification:'Shnobel, Normal';font-variant-ligatures:discretionary-ligatures;font-variant-caps:normal;font-variant-numeric:normal;font-feature-settings:normal, aart;text-align:start;writing-mode:lr-tb;text-anchor:start;stroke-width:0.26458332">OUT</tspan></text>
    <text
       xml:space="preserve"
       style="font-style:normal;font-variant:normal;font-weight:normal;font-stretch:normal;font-size:7.05555534px;line-height:1.25;font-family:Shnobel;-inkscape-font-specification:'Shnobel, Normal';font-variant-ligatures:discretionary-ligatures;font-variant-caps:normal;font-variant-numeric:normal;font-feature-settings:normal, aart;text-align:start;letter-spacing:0px;word-spacing:0px;writing-mode:lr-tb;text-anchor:start;fill:#000000;fill-opacity:1;stroke:none;stroke-width:0.26458332"
       x="9.4511919"
       y="289.90732"
       id="text157"><tspan
         sodipodi:role="line"
         id="tspan155"
         x="9.4511919"
         y="289.90732"
         style="font-style:normal;font-variant:normal;font-weight:normal;font-stretch:normal;font-size:7.05555534px;font-family:Shnobel;-inkscape-font-specification:'Shnobel, Normal';font-variant-ligatures:discretionary-ligatures;font-variant-caps:normal;font-variant-numeric:normal;font-feature-settings:normal, aart;text-align:start;writing-mode:lr-tb;text-anchor:start;stroke-width:0.26458332">IN</tspan></text>
    <text
       xml:space="preserve"
       style="font-style:normal;font-variant:normal;font-weight:normal;font-stretch:normal;font-size:7.05555534px;line-height:1.25;font-family:Shnobel;-inkscape-font-specification:'Shnobel, Normal';font-variant-ligatures:discretionary-ligatures;font-variant-caps:normal;font-variant-numeric:normal;font-feature-settings:normal, aart;text-align:start;letter-spacing:0px;word-spacing:0px;writing-mode:lr-tb;text-anchor:start;fill:#000000;fill-opacity:1;stroke:none;stroke-width:0.26458332"
       x="59.083145"
       y="289.13223"
       id="text161"><tspan
         sodipodi:role="line"
         id="tspan159"
         x="59.083145"
         y="289.13223"
         style="font-style:normal;font-variant:normal;font-weight:normal;font-stretch:normal;font-size:7.05555534px;font-family:Shnobel;-inkscape-font-specification:'Shnobel, Normal';font-variant-ligatures:discretionary-ligatures;font-variant-caps:normal;font-variant-numeric:normal;font-feature-settings:normal, aart;text-align:start;writing-mode:lr-tb;text-anchor:start;stroke-width:0.26458332">CV</tspan></text>
    <text
       xml:space="preserve"
       style="font-style:normal;font-variant:normal;font-weight:normal;font-stretch:normal;font-size:7.05555534px;line-height:1.25;font-family:Shnobel;-inkscape-font-specification:'Shnobel, Normal';font-variant-ligatures:discretionary-ligatures;font-variant-caps:normal;font-variant-numeric:normal;font-feature-settings:normal, aart;text-align:start;letter-spacing:0px;word-spacing:0px;writing-mode:lr-tb;text-anchor:start;fill:#000000;fill-opacity:1;stroke:none;stroke-width:0.26458332"
       x="30.95575"
       y="288.97186"
       id="text165"><tspan
         sodipodi:role="line"
         id="tspan163"
         x="30.95575"
         y="288.97186"
         style="font-style:normal;font-variant:normal;font-weight:normal;font-stretch:normal;font-size:7.05555534px;font-family:Shnobel;-inkscape-font-specification:'Shnobel, Normal';font-variant-ligatures:discretionary-ligatures;font-variant-caps:normal;font-variant-numeric:normal;font-feature-settings:normal, aart;text-align:start;writing-mode:lr-tb;text-anchor:start;stroke-width:0.26458332">V/OCT</tspan></text>
    <text
       xml:space="preserve"
       style="font-style:normal;font-variant:normal;font-weight:normal;font-stretch:normal;font-size:7.05555534px;line-height:1.25;font-family:Shnobel;-inkscape-font-specification:'Shnobel, Normal';font-variant-ligatures:discretionary-ligatures;font-variant-caps:normal;font-variant-numeric:normal;font-feature-settings:normal, aart;text-align:start;letter-spacing:0px;word-spacing:0px;writing-mode:lr-tb;text-anchor:start;fill:#000000;fill-opacity:1;stroke:none;stroke-width:0.26458332"
       x="71.395073"
       y="249.73619"
       id="text149-4"
       inkscape:export-xdpi="1000"
       inkscape:export-ydpi="1000"><tspan
         sodipodi:role="line"
         id="tspan147-2"
         x="71.395073"
         y="249.73619"
         style="font-style:normal;font-variant:normal;font-weight:normal;font-stretch:normal;font-size:7.05555534px;font-family:Shnobel;-inkscape-font-specification:'Shnobel, Normal';font-variant-ligatures:discretionary-ligatures;font-variant-caps:normal;font-variant-numeric:normal;font-feature-settings:normal, aart;text-align:start;writing-mode:lr-tb;text-anchor:start;stroke-width:0.26458332">CV</tspan></text>
    <text
       xml:space="preserve"
       style="font-style:normal;font-variant:normal;font-weight:normal;font-stretch:normal;font-size:7.05555534px;line-height:1.25;font-family:Shnobel;-inkscape-font-specification:'Shnobel, Normal';font-variant-ligatures:discretionary-ligatures;font-variant-caps:normal;font-variant-numeric:normal;font-feature-settings:normal, aart;text-align:start;letter-spacing:0px;word-spacing:0px;writing-mode:lr-tb;text-anchor:start;fill:#000000;fill-opacity:1;stroke:none;stroke-width:0.26458332"
       x="78.485474"
       y="198.97354"
       id="text389"><tspan
         sodipodi:role="line"
         id="tspan387"
         x="78.485474"
         y="198.97354"
         style="font-style:normal;font-variant:normal;font-weight:normal;font-stretch:normal;font-size:3.52777767px;font-family:Shnobel;-inkscape-font-specification:'Shnobel, Normal';font-variant-ligatures:discretionary-ligatures;font-variant-caps:normal;font-variant-numeric:normal;font-feature-settings:normal, aart;text-align:start;writing-mode:lr-tb;text-anchor:start;stroke-width:0.26458332">CV amt</tspan></text>
    <text
       xml:space="preserve"
       style="font-style:normal;font-variant:normal;font-weight:normal;font-stretch:normal;font-size:7.05555534px;line-height:1.25;font-family:Shnobel;-inkscape-font-specification:'Shnobel, Normal';font-variant-ligatures:discretionary-ligatures;font-variant-caps:normal;font-variant-numeric:normal;font-feature-settings:normal, aart;text-align:start;letter-spacing:0px;word-spacing:0px;writing-mode:lr-tb;text-anchor:start;fill:#000000;fill-opacity:1;stroke:none;stroke-width:0.26458332"
       x="13.697726"
       y="208.39391"
       id="text389-6"><tspan
         sodipodi:role="line"
         id="tspan387-7"
         x="13.697726"
         y="208.39391"
         style="font-style:normal;font-variant:normal;font-weight:normal;font-stretch:normal;font-size:3.52777767px;font-family:Shnobel;-inkscape-font-specification:'Shnobel, Normal';font-variant-ligatures:discretionary-ligatures;font-variant-caps:normal;font-variant-numeric:normal;font-feature-settings:normal, aart;text-align:start;writing-mode:lr-tb;text-anchor:start;stroke-width:0.26458332">v/Oct</tspan></text>
    <text
       xml:space="preserve"
       style="font-style:normal;font-variant:normal;font-weight:normal;font-stretch:normal;font-size:7.05555534px;line-height:1.25;font-family:Shnobel;-inkscape-font-specification:'Shnobel, Normal';font-variant-ligatures:discretionary-ligatures;font-variant-caps:normal;font-variant-numeric:normal;font-feature-settings:normal, aart;text-align:start;letter-spacing:0px;word-spacing:0px;writing-mode:lr-tb;text-anchor:start;fill:#000000;fill-opacity:1;stroke:none;stroke-width:0.26458332"
       x="10.180114"
       y="198.89229"
       id="text389-7"><tspan
         sodipodi:role="line"
         id="tspan387-0"
         x="10.180114"
         y="198.89229"
         style="font-style:normal;font-variant:normal;font-weight:normal;font-stretch:normal;font-size:3.52777767px;font-family:Shnobel;-inkscape-font-specification:'Shnobel, Normal';font-variant-ligatures:discretionary-ligatures;font-variant-caps:normal;font-variant-numeric:normal;font-feature-settings:normal, aart;text-align:start;writing-mode:lr-tb;text-anchor:start;stroke-width:0.26458332">freq off</tspan></text>
    <text
       xml:space="preserve"
       style="font-style:normal;font-variant:normal;font-weight:normal;font-stretch:normal;font-size:7.05555534px;line-height:1.25;font-family:Shnobel;-inkscape-font-specification:'Shnobel, Normal';font-variant-ligatures:discretionary-ligatures;font-variant-caps:normal;font-variant-numeric:normal;font-feature-settings:normal, aart;text-align:start;letter-spacing:0px;word-spacing:0px;writing-mode:lr-tb;text-anchor:start;fill:#000000;fill-opacity:1;stroke:none;stroke-width:0.26458332"
       x="78.538666"
       y="208.34911"
       id="text389-9"><tspan
         sodipodi:role="line"
         id="tspan387-4"
         x="78.538666"
         y="208.34911"
         style="font-style:normal;font-variant:normal;font-weight:normal;font-stretch:normal;font-size:3.52777767px;font-family:Shnobel;-inkscape-font-specification:'Shnobel, Normal';font-variant-ligatures:discretionary-ligatures;font-variant-caps:normal;font-variant-numeric:normal;font-feature-settings:normal, aart;text-align:start;writing-mode:lr-tb;text-anchor:start;stroke-width:0.26458332">offset</tspan></text>
    <g
       style="fill:none"
       id="g452"
       transform="matrix(0.19181551,0,0,0.19181551,22.34849,112.63301)">
      <path
         id="path441"
         d="m 142.332,260.502 -6.374,-0.113 -5.667,-0.28 -3.17,-0.376 -2.668,-0.541 -2.623,-0.766 -3.574,-1.312 -3.337,-1.152 -2.048,-0.472 -1.881,-0.214 -2.074,-0.004 -2.669,0.237 -4.029,0.363 -1.766,-0.079 -1.3223,-0.264 -1.131,-0.431 -1.0493,-0.634 -0.9577,-0.843 -0.862,-1.045 -0.8414,-1.357 -0.9341,-1.956 -2.4588,-5.533 -0.7658,-0.989 -0.7116,-0.588 -0.8177,-0.386 -0.936,-0.173 -1.0614,0.04 -1.3443,0.286 -1.8432,0.645 -3.1754,1.407 -3.6969,1.591 -1.8353,0.575 -1.338,0.225 -1.0404,-0.018 -0.8931,-0.247 -0.633,-0.41 -0.5009,-0.598 -0.3632,-0.787 -0.248,-1.151 -0.0642,-1.383 0.1332,-1.828 0.4233,-2.565 0.8872,-3.842 1.2282,-5.341 0.1919,-1.788 -0.0872,-1.082 -0.2728,-0.682 -0.3817,-0.385 -0.5307,-0.213 -0.6838,-0.042 -1.0238,0.169 -1.4659,0.479 -2.2756,1 -4.2056,2.14 -5.8452,2.937 -3.0021,1.251 -1.828,0.556 -1.3207,0.211 -0.8954,-0.036 -0.6878,-0.243 -0.3907,-0.348 -0.2431,-0.487 -0.0927,-0.626 0.0961,-0.972 0.4189,-1.43 0.7302,-1.69 1.1998,-2.246 1.9752,-3.199 3.3073,-4.858 4.5159,-6.636 1.0656,-1.95 0.3745,-1.099 -0.0054,-0.655 -0.2265,-0.348 -0.431,-0.19 -0.6377,-0.034 -1.0854,0.169 -1.7095,0.49 -2.9045,1.076 -6.37,2.659 -7.5119,3.069 -4.1667,1.473 -2.7716,0.769 -1.9192,0.321 -1.2149,-0.002 -0.6934,-0.191 -0.4304,-0.363 -0.1448,-0.388 0.0479,-0.667 0.3229,-0.835 0.7807,-1.268 1.4579,-1.819 2.3341,-2.463 3.3196,-3.135 4.7093,-4.125 10.6225,-9.194 1.4025,-1.56 0.433,-0.796 -0.0229,-0.437 -0.2398,-0.212 -0.6196,-0.13 -1.2518,0.073 -2.1719,0.404 -3.9096,0.992 -20.9645,5.668 -3.9814,0.773 -2.7599,0.331 -1.7317,0.006 -0.9671,-0.185 -0.4654,-0.253 -0.2348,-0.351 -4e-4,-0.448 0.2349,-0.543 0.6751,-0.867 1.0761,-1.019 1.8732,-1.466 2.9349,-1.993 4.1781,-2.556 6.0985,-3.448 16.6799,-9.218 1.4065,-1.089 0.3682,-0.529 -0.0371,-0.293 -0.3102,-0.206 -0.8371,-0.143 -1.7102,0.018 -2.9599,0.273 -6.7595,0.907 -15.0554,2.066 -6.3652,0.652 -4.6885,0.26 -2.62957,-0.036 -1.90616,-0.24 -0.94939,-0.344 -0.35762,-0.347 -0.04635,-0.421 0.26683,-0.494 0.57738,-0.563 1.23993,-0.849 2.26165,-1.201 3.6388,-1.606 5.2523,-2.019 6.8141,-2.372 12.6473,-4.109 6.3704,-2.164 2.4271,-1.003 1.0608,-0.658 0.188,-0.318 -0.0659,-0.183 -0.3868,-0.229 -1.0473,-0.231 -2.1298,-0.183 -4.3629,-0.104 -14.1108,0.029 -9.6239,-0.124 -6.0298,-0.273 -4.24347,-0.389 -2.67021,-0.442 -1.47811,-0.43 -0.69381,-0.365 -0.32397,-0.399 -0.00703,-0.283 0.16084,-0.296 0.55399,-0.466 0.922,-0.489 1.77725,-0.679 3.03051,-0.878 4.64281,-1.07 6.4207,-1.225 8.957,-1.471 16.9919,-2.727 2.3316,-0.615 0.7132,-0.387 0.073,-0.284 -0.3267,-0.283 -1.0488,-0.38 -2.2516,-0.493 -4.7129,-0.749 -26.1437,-3.829 -5.79264,-1.178 -3.18566,-0.842 -1.84846,-0.657 -1.15825,-0.631 -0.39076,-0.449 -0.02752,-0.285 0.15988,-0.273 0.58904,-0.385 0.99958,-0.35 1.942,-0.411 3.32055,-0.419 5.07754,-0.363 6.972,-0.247 10.6182,-0.114 13.8331,-0.124 2.9186,-0.223 1.0433,-0.249 0.2806,-0.248 -0.0556,-0.199 -0.4464,-0.348 -1.2577,-0.566 -2.5732,-0.871 -6.0864,-1.76 -19.2233,-5.434 -6.5352,-2.095 -4.48068,-1.659 -2.66208,-1.217 -1.314,-0.832 -0.47437,-0.527 -0.06568,-0.303 0.13645,-0.261 0.33806,-0.218 0.87957,-0.247 1.8423,-0.176 2.55147,-0.005 4.05546,0.218 5.8486,0.544 8.7145,1.058 21.1877,2.719 1.7121,-0.035 0.4218,-0.179 0.023,-0.189 -0.1838,-0.248 -0.6581,-0.481 -1.5657,-0.846 -3.6893,-1.69 -9.8801,-4.179 -11.4402,-4.921 -6.5929,-3.057 -4.4995,-2.323 -2.6254,-1.6054 -1.23963,-1.0131 -0.39,-0.582 0.00413,-0.2982 0.21667,-0.2244 0.428,-0.1494 1.03063,-0.0834 2.0671,0.1473 2.7912,0.428 4.3523,0.8874 6.155,1.478 8.9394,2.3792 17.9838,4.857 2.0505,0.326 0.6075,-0.055 0.1372,-0.148 -0.0777,-0.238 -0.5158,-0.528 -1.4072,-1.022 -3.5129,-2.176 -9.6686,-5.5861 -10.1851,-5.9594 -6.4486,-4.0045 -4.3365,-2.9545 -2.4432,-1.9464 -1.0595,-1.1423 -0.2357,-0.5888 0.1151,-0.2591 0.3329,-0.1503 0.9022,-0.0209 1.3691,0.2213 2.5017,0.655 4.0748,1.342 5.9457,2.229 8.8412,3.5953 18.6765,7.7126 1.8265,0.4852 0.4547,-0.0668 0.0303,-0.2006 L 60.1082,94.711 58.891,93.5567 56.2827,91.4479 49.1928,86.105 37.5751,77.3444 31.3679,72.4039 27.2362,68.8254 25.331,66.9451 24.2192,65.5564 23.943,64.8698 l 0.0887,-0.2806 0.3077,-0.1362 0.5243,0.0087 1.1824,0.2814 2.273,0.8577 3.8268,1.776 5.7045,2.9658 7.5028,4.1721 19.6883,11.1015 1.2462,0.4465 0.3718,-0.0769 -0.023,-0.2533 -0.4356,-0.684 -1.2987,-1.4669 -3.3206,-3.2937 -21.2826,-20.5325 -3.25,-3.5105 -2.2026,-2.7055 -0.8809,-1.4614 -0.1084,-0.6436 0.1962,-0.2051 0.4104,-0.0237 1.0088,0.302 1.4603,0.6964 2.5886,1.5016 4.105,2.679 5.8216,4.0908 9.3365,6.8932 11.6082,8.5902 2.2596,1.4399 0.751,0.3131 0.2389,-0.0346 0.0286,-0.2331 -0.3463,-0.7217 -1.1572,-1.6401 -3.0574,-3.7858 -18.0598,-21.7315 -3.6081,-4.8383 -1.6143,-2.4618 -0.8661,-1.7121 -0.1228,-0.7433 0.1753,-0.2267 0.3807,-0.009 0.5829,0.208 1.2402,0.7104 2.2874,1.6508 3.7277,3.0577 5.3855,4.7712 7.7905,7.2469 12.4044,11.5883 1.8754,1.4479 0.5418,0.1984 0.1124,-0.1597 -0.0853,-0.3948 -0.4889,-1.0279 -1.2845,-2.1494 -3.7096,-5.6233 -11.6195,-17.3885 -3.766,-6.0435 -2.2737,-4.0251 -1.0893,-2.3234 -0.3401,-1.1391 0.0106,-0.4529 0.203,-0.201 0.3944,0.0527 0.5822,0.3052 1.2119,0.9193 2.1975,2.0353 3.5311,3.6722 5.0294,5.617 7.1368,8.3378 9.921,11.6069 1.8546,1.8526 0.5777,0.344 0.1564,-0.106 -0.0254,-0.3766 -0.37,-1.0665 -1.0734,-2.317 -2.6635,-5.1576 -10.5492,-20.0926 -3.1,-6.4356 -1.7478,-4.1266 -0.7106,-2.2324 -0.0915,-0.9669 0.1557,-0.29 0.3292,-0.0016 0.5001,0.2863 1.0586,0.9578 1.9423,2.207 2.4611,3.1453 3.6172,4.962 5.5542,8.0222 11.4954,16.796 1.184,1.3882 0.4662,0.2697 0.1078,-0.1998 -0.1366,-0.8685 -0.7082,-2.1836 -2.0288,-5.231 -9.5488,-23.9458 -1.9443,-5.4991 -1.2274,-4.1325 -0.3263,-1.6619 0.0061,-0.9781 0.1928,-0.2558 0.3432,0.0661 0.4906,0.3865 1.0005,1.1654 1.7839,2.5774 2.8235,4.6302 3.9542,7.0146 6.1229,11.4227 5.8076,10.7673 1.501,2.3606 0.494,0.4564 0.158,-0.1145 0.022,-0.4509 -0.212,-1.2959 -0.702,-2.8202 -2.142,-7.4503 -5.1884,-17.9037 -1.9473,-7.515 -1.0256,-4.8131 -0.3239,-2.5584 0.0753,-1.05497 0.2055,-0.26921 0.329,0.08361 0.4495,0.43488 0.8894,1.29389 1.5481,2.8426 2.4034,5.0785 3.31,7.6378 5.021,12.256 4.312,10.4161 1.283,2.5804 0.445,0.5014 0.162,-0.1219 0.054,-0.4879 -0.108,-1.4033 -0.631,-4.0022 -2.124,-11.208 -2.449,-13.242 -1.248,-7.8728 -0.569,-4.98488 -0.069,-2.57922 0.191,-0.99441 0.245,-0.19196 0.337,0.18946 0.425,0.56773 0.795,1.53844 1.317,3.23574 1.963,5.6294 2.61,8.2812 4.565,15.4483 2.393,7.7176 0.764,1.8924 0.371,0.4197 0.152,-0.2113 0.093,-1.0486 -0.105,-2.701 -0.54,-6.4588 -1.974,-22.1491 -0.429,-7.75038 -0.033,-3.83305 0.201,-2.44603 0.191,-0.64564 0.251,-0.24324 0.309,0.1636 0.364,0.56783 0.642,1.58662 1.005,3.38284 1.431,5.91885 1.83,8.7095 5.015,24.9426 0.37,0.8594 0.195,0.0557 0.157,-0.3616 0.169,-1.3112 0.123,-3.0981 0.038,-8.4672 0.052,-17.0029 0.239,-8.41135 0.374,-5.24019 0.419,-2.59247 0.38,-0.8773 0.281,-0.05249 0.3,0.37621 0.317,0.79854 0.499,1.95681 0.693,3.89409 0.872,6.52115 0.996,9.2552 2.285,22.5812 0.388,1.5162 0.189,0.1108 0.19,-0.327 0.29,-1.2972 0.41,-3.1435 0.828,-8.6692 1.645,-17.3059 1.023,-8.37432 0.688,-4.20481 0.662,-2.71539 0.462,-0.92828 0.286,-0.064006 0.266,0.383376 0.242,0.8242 0.315,2.02794 0.327,4.04039 0.258,6.7558 0.124,9.5397 0.156,21.9799 0.236,1.6952 0.174,0.1771 0.215,-0.2776 0.406,-1.2545 0.699,-3.1412 1.635,-8.7696 3.255,-17.4442 1.786,-8.26956 1.057,-4.0247 0.68,-1.99411 0.561,-1.01083 0.3,-0.10201 0.236,0.36031 0.17,0.81652 0.133,2.04455 -0.046,4.10908 -0.371,6.89315 -0.768,9.72 -1.827,21.9122 0.062,1.2853 0.141,0.2819 0.226,-0.1856 0.502,-1.1428 0.971,-3.0415 2.43,-8.7066 4.861,-17.4186 2.139,-6.9626 1.473,-4.23571 1.158,-2.65897 0.437,-0.66183 0.334,-0.19387 0.127,0.08057 0.172,0.51486 0.062,0.97772 -0.107,2.29069 -0.494,4.42304 -1.08,7.2115 -2.011,11.5705 -3.04,17.1898 -0.216,2.2859 0.073,0.451 0.085,0.0473 0.269,-0.2624 0.649,-1.2686 1.311,-3.213 3.328,-8.9336 5.902,-15.76 2.781,-6.9025 1.859,-4.167 1.091,-2.08618 0.784,-1.0751 0.337,-0.12502 0.183,0.35473 0.028,0.82847 -0.243,2.0929 -0.821,4.2173 -1.679,7.0548 -2.594,9.8491 -5.295,19.772 -0.276,1.875 0.117,0.2283 0.295,-0.2521 0.776,-1.2599 1.627,-3.2072 4.894,-10.3974 6.65,-13.972 3.352,-6.5977 2.151,-3.8416 1.193,-1.8021 0.566,-0.63 0.37,-0.1531 0.11,0.1043 0.068,0.5687 -0.133,1.0386 -0.563,2.39 -1.365,4.5523 -2.477,7.3195 -4.164,11.4915 -5.526,15.2486 -0.554,2.1096 0.046,0.3497 0.107,-0.0056 0.383,-0.3702 0.994,-1.4273 2.688,-4.4736 14.932,-25.5815 3.413,-5.2481 1.486,-1.9897 0.979,-0.9775 0.35,-0.0588 0.081,0.1508 -0.026,0.6589 -0.499,1.8523 -1.019,2.8067 -2.055,4.9831 -3.376,7.5877 -6.632,14.2288 -4.11,9.0088 -0.757,2.1102 0.014,0.3558 0.11,-10e-4 0.424,-0.3575 1.143,-1.3986 3.142,-4.3907 16.366,-23.4573 3.996,-5.2256 2.188,-2.4715 0.688,-0.5694 0.397,-0.1005 0.087,0.1275 -0.05,0.6084 -0.345,1.0681 -1.045,2.4113 -2.269,4.5257 -3.89,7.1686 -7.117,12.5076 -6.077,10.734 -1.141,2.3611 -0.113,0.5006 0.063,0.0749 0.368,-0.2007 1.15,-1.1557 2.577,-3.0044 9.024,-11.0756 8.063,-9.7531 4.996,-5.7414 2.986,-3.1333 1.466,-1.2727 0.566,-0.2866 0.155,0.0298 0.068,0.1458 -0.125,0.6362 -0.466,1.0839 -1.307,2.4101 -2.74,4.473 -4.601,7.0121 -8.232,12.0432 -6.753,9.9787 -1.125,2.0071 -0.027,0.3339 0.342,-0.1212 1.201,-1.0152 2.804,-2.7831 8.734,-9.1369 10.21,-10.5515 5.468,-5.3564 3.192,-2.843 1.499,-1.0761 0.525,-0.1701 0.116,0.0829 -0.065,0.5008 -0.456,0.9383 -1.383,2.1792 -3.005,4.1569 -5.14,6.6318 -8.192,10.1565 -8.866,11.0364 -1.328,1.9624 -0.059,0.3365 0.127,0.0039 0.567,-0.3181 1.613,-1.2608 4.513,-3.9366 20.021,-17.7567 5.493,-4.5056 2.322,-1.7009 1.427,-0.8048 0.414,-0.0079 0.042,0.1569 -0.248,0.6326 -0.681,1.0452 -1.787,2.286 -3.622,4.1859 -5.938,6.4694 -11.463,12.0596 -6.186,6.6211 -1.438,1.8179 -0.044,0.2937 0.42,-0.1226 1.488,-0.941 3.462,-2.5364 26.451,-19.9208 4.008,-2.672 1.933,-1.0744 0.712,-0.2263 0.176,0.0384 0.053,0.1398 -0.259,0.5813 -0.738,0.9723 -1.954,2.1391 -3.975,3.929 -6.519,6.075 -12.522,11.2717 -6.638,6.0926 -1.454,1.6082 0.02,0.2235 0.529,-0.1663 1.726,-0.9531 5.114,-3.2359 21.627,-13.9972 6.535,-3.9251 3.484,-1.8246 1.341,-0.4379 0.186,0.0416 0.052,0.1362 -0.293,0.5537 -0.816,0.9178 -2.146,2.0095 -4.348,3.6756 -7.097,5.6548 -14.767,11.3665 -5.671,4.4963 -1.235,1.1579 -0.15,0.3243 0.133,0.0262 0.679,-0.2157 2.019,-0.9641 5.724,-3.0781 21.468,-11.7316 6.969,-3.5242 3.705,-1.6159 1.406,-0.3579 0.186,0.0528 0.043,0.1397 -0.346,0.5369 -0.909,0.87 -2.355,1.8814 -4.731,3.4089 -7.662,5.1988 -22.387,14.9534 -0.324,0.3963 0.06,0.0746 0.567,-0.0956 1.935,-0.731 5.804,-2.5773 24.135,-10.945 5.718,-2.3664 3.894,-1.379 1.451,-0.2645 0.181,0.0668 0.028,0.1449 -0.407,0.5209 -1.008,0.819 -2.569,1.7419 -5.107,3.1165 -8.198,4.7002 -22.808,12.8538 -0.513,0.447 -0.02,0.113 0.139,0.04 0.75,-0.135 2.268,-0.714 6.439,-2.3431 21.871,-8.0983 7.723,-2.6014 4.071,-1.1283 1.492,-0.1692 0.177,0.0797 0.013,0.148 -0.464,0.4984 -1.102,0.7582 -2.769,1.5824 -5.459,2.7905 -8.691,4.1567 -22.991,10.7834 -0.838,0.621 0.054,0.08 0.61,-0.025 2.135,-0.484 6.428,-1.818 24.398,-7.0735 6.273,-1.6118 4.257,-0.8726 1.551,-0.0785 0.179,0.0893 0.006,0.1473 -0.503,0.4654 -1.176,0.6844 -2.937,1.399 -5.764,2.428 -9.128,3.571 -23.555,9.049 -0.628,0.385 -0.052,0.114 0.125,0.062 0.776,-0.03 2.431,-0.405 6.975,-1.471 21.527,-4.656 8.429,-1.589 4.477,-0.614 1.649,0.006 0.196,0.096 0.015,0.142 -0.51,0.422 -1.215,0.598 -3.053,1.193 -6.001,2.033 -9.496,2.946 -24.09,7.342 -0.55,0.317 -0.001,0.096 0.551,0.074 2.168,-0.174 6.761,-0.92 23.875,-3.429 8.278,-0.935 3.34,-0.214 1.807,0.091 0.284,0.235 -0.14,0.17 -0.838,0.439 -2.591,0.887 -4.015,1.119 -7.049,1.741 -12.284,2.781 -16.306,3.656 -2.499,0.767 -0.131,0.211 0.633,0.099 2.332,-0.044 7.102,-0.483 24.394,-1.787 6.758,-0.298 4.475,0.023 1.183,0.146 0.42,0.237 -0.081,0.152 -0.743,0.366 -1.494,0.444 -3.532,0.79 -6.686,1.219 -10.25,1.628 -22.726,3.518 -1.083,0.373 0.031,0.092 0.651,0.14 2.403,0.112 7.294,-0.004 22.801,-0.133 8.631,0.195 3.46,0.241 1.828,0.337 0.219,0.131 0.018,0.141 -0.182,0.15 -0.957,0.322 -2.848,0.528 -4.339,0.562 -7.526,0.762 -12.883,1.069 -16.275,1.362 -1.816,0.31 -0.217,0.191 0.591,0.185 2.352,0.275 7.311,0.491 23.002,1.419 8.621,0.782 3.388,0.475 1.702,0.458 0.165,0.146 -0.04,0.14 -0.691,0.265 -1.486,0.239 -3.599,0.305 -6.892,0.298 -10.601,0.215 -22.336,0.342 -1.492,0.204 -0.09,0.09 0.116,0.101 0.845,0.241 2.73,0.461 7.841,1.031 21.09,2.726 8.651,1.364 3.391,0.704 1.686,0.572 0.156,0.156 -0.052,0.137 -0.722,0.217 -1.523,0.136 -3.662,0.058 -6.971,-0.173 -10.648,-0.504 -21.898,-1.109 -1.285,0.131 -0.017,0.093 0.584,0.266 2.367,0.597 7.357,1.49 22.678,4.497 6.754,1.537 3.485,0.947 1.803,0.705 0.197,0.173 -0.009,0.142 -0.216,0.108 -1.042,0.117 -3.005,-0.071 -6.287,-0.509 -10.203,-1.116 -23.735,-2.767 -1.226,0.06 -0.001,0.096 0.611,0.314 2.385,0.766 7.302,1.987 20.178,5.397 8.243,2.455 3.16,1.118 1.18,0.549 0.383,0.374 -0.113,0.119 -0.831,0.097 -1.608,-0.086 -3.735,-0.451 -6.935,-1.106 -12.449,-2.268 -16.319,-2.994 -1.91,-0.191 -0.29,0.123 0.51,0.333 2.204,0.887 6.941,2.401 19.347,6.575 6.539,2.405 4.272,1.801 1.067,0.601 0.29,0.377 -0.15,0.101 -0.887,0.027 -1.635,-0.203 -3.717,-0.702 -6.799,-1.542 -12.01,-2.993 -14.314,-3.579 -2.14,-0.39 -0.488,0.044 0.046,0.117 0.665,0.427 2.363,1.106 6.953,2.917 18.341,7.643 5.837,2.637 2.889,1.474 1.065,0.68 0.323,0.414 -0.122,0.103 -0.805,-0.002 -1.525,-0.274 -3.502,-0.879 -6.443,-1.883 -11.399,-3.604 -13.516,-4.27 -1.978,-0.471 -0.422,0.042 0.065,0.132 0.674,0.485 2.297,1.263 6.638,3.313 15.518,7.691 5.698,3.009 2.936,1.711 1.485,1.096 0.113,0.351 -0.211,0.057 -0.948,-0.12 -2.654,-0.741 -5.448,-1.882 -8.652,-3.268 -17.359,-6.648 -1.485,-0.375 -0.155,0.035 0.018,0.119 0.547,0.483 2.034,1.322 6.043,3.544 15.713,9.156 4.794,3.016 2.225,1.591 0.706,0.669 0.046,0.331 -0.617,-0.013 -1.255,-0.35 -2.966,-1.109 -5.541,-2.355 -9.878,-4.484 -11.676,-5.268 -1.67,-0.579 -0.331,0.046 0.307,0.401 1.6,1.251 3.963,2.734 17.913,12.153 3.582,2.725 1.278,1.23 0.102,0.377 -0.178,0.051 -0.806,-0.172 -2.264,-0.905 -4.645,-2.231 -8.873,-4.625 -12.227,-6.392 -1.543,-0.621 -0.315,0.04 0.266,0.413 1.435,1.297 3.568,2.837 15.917,12.438 3.05,2.697 0.99,1.16 -0.022,0.31 -0.572,-0.07 -1.1,-0.438 -2.538,-1.288 -4.661,-2.649 -9.474,-5.704 -7.303,-4.318 -1.565,-0.754 -0.406,-0.042 -0.007,0.122 0.372,0.53 1.466,1.474 4.385,3.949 11.034,9.853 3.081,3.016 1.226,1.448 0.223,0.509 -0.074,0.111 -0.514,-0.066 -0.984,-0.439 -2.267,-1.296 -4.157,-2.666 -9.552,-6.49 -5.313,-3.502 -1.362,-0.715 -0.342,-0.013 0.002,0.138 0.344,0.559 1.309,1.512 3.849,3.973 9.417,9.657 2.488,2.843 0.887,1.299 0.065,0.406 -0.13,0.06 -0.579,-0.163 -1.614,-0.917 -3.297,-2.278 -6.254,-4.692 -7.914,-5.913 -1.299,-0.774 -0.378,-0.064 -0.038,0.108 0.219,0.497 1.021,1.409 3.17,3.788 7.904,9.311 2.07,2.743 0.71,1.247 0.019,0.384 -0.13,0.054 -0.534,-0.167 -1.439,-0.9 -2.892,-2.212 -5.423,-4.511 -6.243,-5.172 -1.608,-1.062 -0.306,-0.011 0.035,0.348 0.656,1.172 1.826,2.605 8.083,11.101 1.276,2.174 0.204,0.612 -0.107,0.266 -0.418,-0.085 -0.714,-0.421 -1.562,-1.202 -3.536,-3.115 -8.241,-7.48 -1.001,-0.677 -0.318,-0.042 -0.034,0.297 0.239,0.626 0.818,1.503 2.795,4.471 4.009,6.466 1.173,2.265 0.272,0.951 -0.139,0.235 -0.394,-0.091 -1.04,-0.713 -2.071,-1.853 -4.528,-4.512 -3.839,-3.745 -0.987,-0.763 -0.379,-0.14 -0.146,0.171 0.08,0.478 0.507,1.248 1.625,3.186 3.775,7.291 0.754,1.925 0.062,0.743 -0.217,0.128 -0.421,-0.165 -0.979,-0.756 -1.819,-1.78 -7.353,-7.591 -0.362,-0.145 -0.178,0.134 0.002,0.409 0.311,1.093 1.138,2.815 2.691,6.463 0.479,1.697 -0.037,0.649 -0.226,0.106 -0.385,-0.152 -0.847,-0.675 -1.52,-1.57 -5.792,-6.342 -0.513,-0.213 -0.166,0.162 -0.03,0.4 0.186,1.009 0.76,2.51 1.599,5.072 0.296,1.554 -0.074,0.639 -0.201,0.146 -0.322,-0.078 -0.689,-0.509 -1.224,-1.272 -4.763,-5.379 -0.484,-0.201 -0.192,0.123 -0.09,0.326 0.035,0.837 0.392,2.102 0.927,4.645 0.007,1.149 -0.217,0.398 -0.256,0.031 -0.539,-0.293 -0.957,-0.922 -1.99,-2.37 -1.545,-1.754 -0.748,-0.56 -0.372,0.007 -0.156,0.214 -0.11,0.616 0.037,1.267 0.309,4.758 -0.146,0.604 -0.282,0.273 -0.263,-0.006 -0.5,-0.275 -0.819,-0.77 -3.173,-3.367 -0.41,-0.107 -0.298,0.19 -0.197,0.471 -0.14,0.981 -0.324,3.717 -0.309,0.582 -0.335,0.137 -0.419,-0.116 -0.667,-0.488 -1.493,-1.533 -1.024,-0.911 -0.553,-0.213 -0.335,0.095 -0.27,0.309 -0.281,0.688 -0.958,3.065 -0.407,0.322 -0.366,0.022 -0.558,-0.232 -0.928,-0.716 -1.362,-1.037 -0.52,-0.153 -0.452,0.117 -0.392,0.369 -0.517,0.87 -0.789,1.316 -0.522,0.396 -0.472,0.07 -0.648,-0.187 -2.378,-1.057 -0.569,0.146 -0.632,0.461 -1.356,1.166 -0.568,0.196 -0.723,-0.019 -1.251,-0.363 -0.975,-0.171 -0.7,0.09 -0.905,0.358 -1.363,0.542 -0.941,0.102 -1.793,-0.147 -1.18,0.039 -4.112,0.408 -4.957,0.083"
         inkscape:connector-curvature="0"
         style="stroke:#000000;stroke-width:1.5;stroke-linecap:square" />
    </g>
    <g
       style="fill:none"
       id="g477"
       transform="matrix(0.16591104,0,0,0.16591104,26.634185,172.74264)">
      <path
         id="path454"
         d="m 274.752,125 -0.151,-4.219 -0.452,-4.2 -0.748,-4.161 -1.04,-4.103 -1.323,-4.028 -1.596,-3.935 -1.856,-3.8269 -2.102,-3.7035 -2.332,-3.5675 -2.545,-3.4203 -2.739,-3.2636 -2.914,-3.0996 -3.068,-2.9302 -3.201,-2.7574 -3.314,-2.5835 -3.404,-2.4103 -3.474,-2.2402 -4.706,-2.7308 -4.748,-2.4538 -4.748,-2.1987 -5.876,-2.4309 -5.751,-2.1348 -7.748,-2.6197 -16.061,-5.3349 -5.443,-2.0969 -4.345,-1.8894 -4.218,-2.0536 -4.142,-2.2357 -4.948,-2.9253 -6.722,-4.2629 -10.771,-6.8355 -4.844,-2.8336 -5.087,-2.7151 -4.249,-2.0312 -4.404,-1.8589 -4.55,-1.6433 -3.499,-1.0656 -3.564,-0.9039 -3.618,-0.7262 -3.66,-0.5339 -3.689,-0.32825 -3.703,-0.11107 -3.7021,0.11602 -3.6839,0.351 -3.6486,0.5921 -3.5958,0.8367 -3.5252,1.0831 -3.4368,1.3288 -3.3311,1.5717 -3.2085,1.8096 -3.0699,2.0404 -2.9162,2.262 -2.7488,2.4725 -2.569,2.6702 -2.3785,2.8535 -2.1789,3.0207 -1.9725,3.1711 -1.7608,3.3032 -1.5463,3.4166 -1.331,3.5106 -1.1169,3.5852 -0.9065,3.64 -0.7016,3.6757 -0.5044,3.6925 -0.3168,3.6912 -0.1406,3.6728 0.0636,4.8411 0.3183,4.7464 0.5339,4.6229 0.9067,5.5701 1.0924,5.3091 1.6756,6.9661 3.0339,12.384 0.7539,4.022 0.4997,3.886 0.1965,3.051 0.0076,3.033 -0.1817,3.048 -0.4823,3.879 -0.7389,4.011 -1.1632,5.061 -4.2048,17.365 -1.0036,5.452 -0.6399,4.54 -0.4482,4.678 -0.2158,4.79 0.0541,4.871 0.2379,3.685 0.4207,3.694 0.6138,3.686 0.8156,3.658 1.0239,3.611 1.2366,3.546 1.4517,3.461 1.6667,3.355 1.88,3.231 2.0889,3.089 2.2918,2.929 2.4865,2.753 2.6712,2.561 2.8442,2.356 3.0041,2.139 3.1495,1.912 3.2793,1.677 3.3925,1.436 3.4885,1.191 3.5669,0.945 3.6276,0.7 3.6705,0.456 3.6965,0.218 3.704,-0.012 3.697,-0.234 3.675,-0.445 3.638,-0.644 3.589,-0.827 3.528,-0.997 4.595,-1.563 4.454,-1.792 4.301,-1.979 4.142,-2.123 4.955,-2.788 5.638,-3.44 18.758,-11.759 4.973,-2.675 4.233,-2.03 4.366,-1.869 5.475,-2.08 6.777,-2.308 17.17,-5.693 5.771,-2.171 5.888,-2.476 4.751,-2.241 4.744,-2.499 4.694,-2.78 3.46,-2.279 3.386,-2.449 3.29,-2.623 3.172,-2.797 3.035,-2.969 2.876,-3.137 2.697,-3.3 2.498,-3.455 2.282,-3.599 2.047,-3.733 1.798,-3.853 1.535,-3.957 1.259,-4.047 0.974,-4.118 0.682,-4.171 0.384,-4.206 0.088,-2.814"
         inkscape:connector-curvature="0"
         style="stroke:#000000;stroke-width:2.5;stroke-linecap:square" />
      <path
         id="path456"
         d="m 252.218,125 0.966,-3.577 0.747,-3.628 0.516,-3.665 0.274,-3.686 0.025,-3.693 -0.23,-3.681 -0.49,-3.6527 -0.749,-3.6064 -1.009,-3.5426 -1.265,-3.4615 -1.517,-3.3636 -1.761,-3.2497 -1.995,-3.1207 -2.218,-2.9779 -2.428,-2.8224 -2.623,-2.6562 -2.801,-2.4806 -2.963,-2.2976 -3.105,-2.1093 -3.229,-1.9176 -3.333,-1.7246 -3.415,-1.5325 -3.48,-1.3433 -3.523,-1.1591 -3.547,-0.982 -4.736,-1.0494 -4.704,-0.7767 -4.636,-0.5349 -5.651,-0.3826 -5.441,-0.1359 -7.199,0.0696 -12.82,0.2187 -4.109,-0.1416 -3.916,-0.3547 -3.027,-0.4663 -2.964,-0.6454 -2.933,-0.8326 -3.671,-1.3055 -3.737,-1.5873 -4.656,-2.2341 -16.892,-8.3888 -5.123,-2.178 -4.308,-1.6165 -4.483,-1.4543 -4.6413,-1.2468 -4.7772,-0.9963 -3.6553,-0.5587 -3.7021,-0.3799 -3.7339,-0.1873 -3.7493,0.0174 -3.7473,0.2325 -3.7273,0.4557 -3.6885,0.6854 -3.6309,0.919 -3.554,1.1546 -3.4585,1.3898 -3.3445,1.6226 -3.2128,1.8507 -3.0644,2.0721 -2.9004,2.2848 -2.722,2.487 -2.5311,2.6771 -2.3289,2.8533 -2.1178,3.0147 -1.8995,3.1599 -1.676,3.2883 -1.4496,3.3989 -1.2223,3.4917 -0.9965,3.5664 -0.7742,3.6231 -0.5573,3.6621 -0.3482,3.684 -0.1484,3.6899 0.0401,3.6803 0.2159,3.6569 0.5365,4.8177 0.7868,4.7277 0.9977,4.619 1.4804,5.596 1.6631,5.387 2.4824,7.19 5.6873,16.105 1.6135,5.448 1.1336,4.551 0.9413,4.619 0.765,4.739 0.7302,5.909 0.886,9.441 1.0942,11.403 0.9478,7.282 1.0745,6.276 1.0989,5.122 1.349,5.177 1.6299,5.196 1.4228,3.884 1.6049,3.853 1.7943,3.801 1.9891,3.729 2.1873,3.636 2.3869,3.522 2.5855,3.387 2.7812,3.232 2.9716,3.055 3.155,2.859 3.3289,2.646 3.492,2.416 3.6421,2.169 3.7777,1.909 3.8976,1.637 4.0003,1.356 4.0852,1.066 4.151,0.772 4.197,0.474 4.225,0.176 4.231,-0.12 4.22,-0.413 4.189,-0.699 4.14,-0.976 4.073,-1.243 3.991,-1.496 3.894,-1.736 3.784,-1.959 3.662,-2.164 3.53,-2.351 3.391,-2.518 3.246,-2.664 3.098,-2.791 2.946,-2.895 3.697,-3.986 3.436,-4.088 3.188,-4.141 3.664,-5.186 3.349,-5.128 4.266,-6.963 8.229,-13.607 3.245,-4.881 2.791,-3.845 2.918,-3.678 3.074,-3.555 3.919,-4.18 5.611,-5.591 9.798,-9.708 3.839,-4.101 3.775,-4.367 2.92,-3.7 2.784,-3.889 2.605,-4.08 1.808,-3.181 1.664,-3.28 1.502,-3.371 1.322,-3.455 0.775,-2.345"
         inkscape:connector-curvature="0"
         style="stroke:#000000;stroke-width:1.70000005;stroke-linecap:square" />
      <path
         id="path458"
         d="m 226.779,125 2.546,-3.815 2.432,-4.022 2.271,-4.224 2.062,-4.414 1.383,-3.425 1.222,-3.512 1.043,-3.5873 0.85,-3.6505 0.642,-3.6988 0.421,-3.7315 0.19,-3.7476 -0.049,-3.7462 -0.295,-3.7266 -0.545,-3.6889 -0.797,-3.6324 -1.049,-3.5578 -1.299,-3.4651 -1.543,-3.3552 -1.782,-3.2289 -2.011,-3.0872 -2.23,-2.9317 -2.436,-2.7635 -2.628,-2.5845 -2.806,-2.3965 -2.967,-2.2014 -3.111,-2.0011 -3.237,-1.7978 -3.344,-1.5936 -3.434,-1.3905 -3.504,-1.1908 -3.558,-0.9963 -3.593,-0.809 -3.611,-0.6309 -4.818,-0.5828 -4.79,-0.3149 -4.733,-0.0807 -4.652,0.1167 -5.673,0.3643 -6.571,0.6541 -21.996,2.4534 -5.642,0.2501 -4.694,-0.0092 -4.745,-0.2117 -5.837,-0.5032 -7.109,-0.8626 -17.9461,-2.3199 -6.1437,-0.5462 -6.381,-0.3218 -5.2535,-0.0405 -5.3598,0.1961 -5.4362,0.4706 -4.1062,0.5538 -4.113,0.7406 -4.1018,0.9385 -4.0716,1.1459 -4.0217,1.3611 -3.9514,1.5818 -3.8603,1.806 -3.7481,2.0314 -3.6154,2.2561 -3.462,2.4775 -3.2891,2.6937 -3.0972,2.9025 -2.8875,3.1019 -2.6617,3.2899 -2.4208,3.4648 -2.16705,3.6249 -1.90214,3.7691 -1.62817,3.8957 -1.34737,4.0041 -1.06196,4.0935 -0.77432,4.1632 -0.48679,4.213 -0.20171,4.2432 0.07858,4.2536 0.35181,4.2449 0.61583,4.2181 0.8686,4.174 1.10822,4.113 1.33297,4.037 1.54133,3.949 1.73196,3.848 1.90381,3.738 2.0561,3.62 2.188,3.495 3.0873,4.461 3.2368,4.229 3.3384,4 4.2463,4.692 5.0951,5.215 6.5946,6.373 9.0582,8.765 4.062,4.249 3.1471,3.571 2.9536,3.652 2.7953,3.775 3.2114,4.732 3.6733,5.829 8.3817,13.469 3.1707,4.659 3.4478,4.647 2.9845,3.661 3.2016,3.565 3.4276,3.427 2.7211,2.451 2.8491,2.33 2.9739,2.188 3.095,2.03 3.207,1.852 3.313,1.659 3.407,1.45 3.49,1.227 3.56,0.993 3.615,0.746 3.654,0.492 3.677,0.231 3.683,-0.035 3.671,-0.303 3.643,-0.571 3.596,-0.836 3.533,-1.097 3.452,-1.351 3.357,-1.597 3.246,-1.832 3.122,-2.053 2.986,-2.26 2.839,-2.452 2.684,-2.626 2.523,-2.781 2.356,-2.917 2.186,-3.033 2.015,-3.129 1.847,-3.205 2.205,-4.355 1.925,-4.405 1.662,-4.412 1.427,-4.377 1.496,-5.365 1.462,-6.204 2.15,-10.482 1.322,-5.991 1.058,-3.965 1.225,-3.73 1.135,-2.842 1.298,-2.741 1.473,-2.671 2.101,-3.288 2.391,-3.291 3.227,-4.048 11.297,-13.772 3.273,-4.459"
         inkscape:connector-curvature="0"
         style="stroke:#000000;stroke-width:1.60000002;stroke-linecap:square" />
      <path
         id="path460"
         d="m 231.575,125 7.383,-20.185 1.858,-5.9547 1.353,-4.9646 1.184,-5.134 0.971,-5.288 0.715,-5.4204 0.344,-4.1359 0.16,-4.1814 -0.037,-4.2119 -0.249,-4.2257 -0.471,-4.2218 -0.704,-4.1989 -0.944,-4.1566 -1.189,-4.0939 -1.438,-4.0109 -1.688,-3.9071 -1.938,-3.7831 -2.182,-3.639 -2.423,-3.4758 -2.655,-3.2943 -2.877,-3.0955 -3.087,-2.8812 -3.284,-2.6526 -3.466,-2.4117 -3.632,-2.16041 -3.778,-1.90075 -3.908,-1.63491 -4.016,-1.36518 -4.106,-1.09383 -4.175,-0.82319 -4.224,-0.55558 -4.253,-0.29323 -4.263,-0.03839 -4.253,0.20693 -4.227,0.4407 -4.184,0.66116 -4.127,0.86669 -4.054,1.05586 -3.971,1.22747 -5.149,1.87144 -4.964,2.09772 -4.768,2.2771 -4.565,2.4093 -5.424,3.1277 -6.112,3.8117 -10.256,6.7546 -6.916,4.4461 -5.041,2.9876 -4.1832,2.2514 -4.2248,2.0464 -4.3134,1.8684 -5.3457,2.0641 -7.4829,2.6023 -13.0426,4.4978 -5.2395,2.0317 -5.2959,2.2984 -4.236,2.0686 -4.1959,2.2989 -4.1157,2.5483 -3.0085,2.0832 -2.9209,2.2348 -2.8142,2.3881 -2.6887,2.5409 -2.5445,2.6915 -2.3822,2.8376 -2.2023,2.9774 -2.0061,3.1093 -1.7946,3.2311 -1.5692,3.3413 -1.3317,3.4387 -1.0837,3.5216 -0.8273,3.5896 -0.5645,3.64 -0.2973,3.674 -0.0281,3.691 0.2407,3.69 0.5071,3.671 0.7687,3.635 1.0232,3.583 1.2687,3.513 1.503,3.429 1.7243,3.33 1.9308,3.221 2.1212,3.098 2.2939,2.968 2.448,2.828 2.5824,2.685 2.6968,2.538 3.738,3.15 3.8561,2.888 3.926,2.633 3.9498,2.392 4.9052,2.683 5.7403,2.836 8.096,3.693 7.2777,3.388 4.3546,2.298 3.3377,2.04 2.499,1.756 2.3688,1.894 2.2642,2.052 2.7281,2.809 2.6746,3.093 3.2347,4.08 10.2978,13.31 3.588,4.181 3.109,3.338 3.334,3.283 3.566,3.18 3.799,3.029 2.998,2.144 3.12,2.011 3.236,1.859 3.343,1.689 3.44,1.501 3.524,1.298 3.595,1.08 3.65,0.849 3.691,0.608 3.715,0.357 3.72,0.1 3.708,-0.161 3.678,-0.425 3.631,-0.688 3.565,-0.949 3.482,-1.207 3.383,-1.456 3.269,-1.697 3.141,-1.929 3,-2.146 2.849,-2.351 2.687,-2.54 2.519,-2.712 2.345,-2.868 2.167,-3.005 1.988,-3.123 1.81,-3.223 1.635,-3.304 1.463,-3.367 1.697,-4.557 1.424,-4.596 1.178,-4.6 0.96,-4.57 0.947,-5.631 0.856,-6.58 1.182,-11.445 0.898,-7.817 0.862,-5.64 0.905,-4.606 1.102,-4.57 1.314,-4.589 1.846,-5.606 1.379,-3.842"
         inkscape:connector-curvature="0"
         style="stroke:#000000;stroke-width:3;stroke-linecap:square" />
      <circle
         id="circle462"
         r="29.5"
         cy="125.5"
         cx="141.5"
         style="stroke:#000000;stroke-width:4" />
    </g>
  </g>
</svg>
