<svg width="277" height="265" viewBox="0 0 277 265" fill="none" xmlns="http://www.w3.org/2000/svg">
<path d="M274.752 125L274.601 120.781L274.149 116.581L273.401 112.42L272.361 108.317L271.038 104.289L269.442 100.354L267.586 96.5271L265.484 92.8236L263.152 89.2561L260.607 85.8358L257.868 82.5722L254.954 79.4726L251.886 76.5424L248.685 73.785L245.371 71.2015L241.967 68.7912L238.493 66.551L233.787 63.8202L229.039 61.3664L224.291 59.1677L218.415 56.7368L212.664 54.602L204.916 51.9823L188.855 46.6474L183.412 44.5505L179.067 42.6611L174.849 40.6075L170.707 38.3718L165.759 35.4465L159.037 31.1836L148.266 24.3481L143.422 21.5145L138.335 18.7994L134.086 16.7682L129.682 14.9093L125.132 13.266L121.633 12.2004L118.069 11.2965L114.451 10.5703L110.791 10.0364L107.102 9.70815L103.399 9.59708L99.6969 9.7131L96.013 10.0641L92.3644 10.6562L88.7686 11.4929L85.2434 12.576L81.8066 13.9048L78.4755 15.4765L75.267 17.2861L72.1971 19.3265L69.2809 21.5885L66.5321 24.061L63.9631 26.7312L61.5846 29.5847L59.4057 32.6054L57.4332 35.7765L55.6724 39.0797L54.1261 42.4963L52.7951 46.0069L51.6782 49.5921L50.7717 53.2321L50.0701 56.9078L49.5657 60.6003L49.2489 64.2915L49.1083 67.9643L49.1719 72.8054L49.4902 77.5518L50.0241 82.1747L50.9308 87.7448L52.0232 93.0539L53.6988 100.02L56.7327 112.404L57.4866 116.426L57.9863 120.312L58.1828 123.363L58.1904 126.396L58.0087 129.444L57.5264 133.323L56.7875 137.334L55.6243 142.395L51.4195 159.76L50.4159 165.212L49.776 169.752L49.3278 174.43L49.112 179.22L49.1661 184.091L49.404 187.776L49.8247 191.47L50.4385 195.156L51.2541 198.814L52.278 202.425L53.5146 205.971L54.9663 209.432L56.633 212.787L58.513 216.018L60.6019 219.107L62.8937 222.036L65.3802 224.789L68.0514 227.35L70.8956 229.706L73.8997 231.845L77.0492 233.757L80.3285 235.434L83.721 236.87L87.2095 238.061L90.7764 239.006L94.404 239.706L98.0745 240.162L101.771 240.38L105.475 240.368L109.172 240.134L112.847 239.689L116.485 239.045L120.074 238.218L123.602 237.221L128.197 235.658L132.651 233.866L136.952 231.887L141.094 229.764L146.049 226.976L151.687 223.536L170.445 211.777L175.418 209.102L179.651 207.072L184.017 205.203L189.492 203.123L196.269 200.815L213.439 195.122L219.21 192.951L225.098 190.475L229.849 188.234L234.593 185.735L239.287 182.955L242.747 180.676L246.133 178.227L249.423 175.604L252.595 172.807L255.63 169.838L258.506 166.701L261.203 163.401L263.701 159.946L265.983 156.347L268.03 152.614L269.828 148.761L271.363 144.804L272.622 140.757L273.596 136.639L274.278 132.468L274.662 128.262L274.75 125.448" stroke="black" stroke-width="2.5" stroke-linecap="square"/>
<path d="M252.218 125L253.184 121.423L253.931 117.795L254.447 114.13L254.721 110.444L254.746 106.751L254.516 103.07L254.026 99.4173L253.277 95.8109L252.268 92.2683L251.003 88.8068L249.486 85.4432L247.725 82.1935L245.73 79.0728L243.512 76.0949L241.084 73.2725L238.461 70.6163L235.66 68.1357L232.697 65.8381L229.592 63.7288L226.363 61.8112L223.03 60.0866L219.615 58.5541L216.135 57.2108L212.612 56.0517L209.065 55.0697L204.329 54.0203L199.625 53.2436L194.989 52.7087L189.338 52.3261L183.897 52.1902L176.698 52.2598L163.878 52.4785L159.769 52.3369L155.853 51.9822L152.826 51.5159L149.862 50.8705L146.929 50.0379L143.258 48.7324L139.521 47.1451L134.865 44.911L117.973 36.5222L112.85 34.3442L108.542 32.7277L104.059 31.2734L99.4177 30.0266L94.6405 29.0303L90.9852 28.4716L87.2831 28.0917L83.5492 27.9044L79.7999 27.9218L76.0526 28.1543L72.3253 28.61L68.6368 29.2954L65.0059 30.2144L61.4519 31.369L57.9934 32.7588L54.6489 34.3814L51.4361 36.2321L48.3717 38.3042L45.4713 40.589L42.7493 43.076L40.2182 45.7531L37.8893 48.6064L35.7715 51.6211L33.872 54.781L32.196 58.0693L30.7464 61.4682L29.5241 64.9599L28.5276 68.5263L27.7534 72.1494L27.1961 75.8115L26.8479 79.4955L26.6995 83.1854L26.7396 86.8657L26.9555 90.5226L27.492 95.3403L28.2788 100.068L29.2765 104.687L30.7569 110.283L32.42 115.67L34.9024 122.86L40.5897 138.965L42.2032 144.413L43.3368 148.964L44.2781 153.583L45.0431 158.322L45.7733 164.231L46.6593 173.672L47.7535 185.075L48.7013 192.357L49.7758 198.633L50.8747 203.755L52.2237 208.932L53.8536 214.128L55.2764 218.012L56.8813 221.865L58.6756 225.666L60.6647 229.395L62.852 233.031L65.2389 236.553L67.8244 239.94L70.6056 243.172L73.5772 246.227L76.7322 249.086L80.0611 251.732L83.5531 254.148L87.1952 256.317L90.9729 258.226L94.8705 259.863L98.8708 261.219L102.956 262.285L107.107 263.057L111.304 263.531L115.529 263.707L119.76 263.587L123.98 263.174L128.169 262.475L132.309 261.499L136.382 260.256L140.373 258.76L144.267 257.024L148.051 255.065L151.713 252.901L155.243 250.55L158.634 248.032L161.88 245.368L164.978 242.577L167.924 239.682L171.621 235.696L175.057 231.608L178.245 227.467L181.909 222.281L185.258 217.153L189.524 210.19L197.753 196.583L200.998 191.702L203.789 187.857L206.707 184.179L209.781 180.624L213.7 176.444L219.311 170.853L229.109 161.145L232.948 157.044L236.723 152.677L239.643 148.977L242.427 145.088L245.032 141.008L246.84 137.827L248.504 134.547L250.006 131.176L251.328 127.721L252.103 125.376" stroke="black" stroke-width="1.7" stroke-linecap="square"/>
<path d="M226.779 125L229.325 121.185L231.757 117.163L234.028 112.939L236.09 108.525L237.473 105.1L238.695 101.588L239.738 98.0007L240.588 94.3502L241.23 90.6514L241.651 86.9199L241.841 83.1723L241.792 79.4261L241.497 75.6995L240.952 72.0106L240.155 68.3782L239.106 64.8204L237.807 61.3553L236.264 58.0001L234.482 54.7712L232.471 51.684L230.241 48.7523L227.805 45.9888L225.177 43.4043L222.371 41.0078L219.404 38.8064L216.293 36.8053L213.056 35.0075L209.712 33.4139L206.278 32.0234L202.774 30.8326L199.216 29.8363L195.623 29.0273L192.012 28.3964L187.194 27.8136L182.404 27.4987L177.671 27.418L173.019 27.5347L167.346 27.899L160.775 28.5531L138.779 31.0065L133.137 31.2566L128.443 31.2474L123.698 31.0357L117.861 30.5325L110.752 29.6699L92.8059 27.35L86.6622 26.8038L80.2812 26.482L75.0277 26.4415L69.6679 26.6376L64.2317 27.1082L60.1255 27.662L56.0125 28.4026L51.9107 29.3411L47.8391 30.487L43.8174 31.8481L39.866 33.4299L36.0057 35.2359L32.2576 37.2673L28.6422 39.5234L25.1802 42.0009L21.8911 44.6946L18.7939 47.5971L15.9064 50.699L13.2447 53.9889L10.8239 57.4537L8.65685 61.0786L6.75471 64.8477L5.12654 68.7434L3.77917 72.7475L2.71721 76.841L1.94289 81.0042L1.4561 85.2172L1.25439 89.4604L1.33297 93.714L1.68478 97.9589L2.30061 102.177L3.16921 106.351L4.27743 110.464L5.6104 114.501L7.15173 118.45L8.88369 122.298L10.7875 126.036L12.8436 129.656L15.0316 133.151L18.1189 137.612L21.3557 141.841L24.6941 145.841L28.9404 150.533L34.0355 155.748L40.6301 162.121L49.6883 170.886L53.7503 175.135L56.8974 178.706L59.851 182.358L62.6463 186.133L65.8577 190.865L69.531 196.694L77.9127 210.163L81.0834 214.822L84.5312 219.469L87.5157 223.13L90.7173 226.695L94.1449 230.122L96.866 232.573L99.7151 234.903L102.689 237.091L105.784 239.121L108.991 240.973L112.304 242.632L115.711 244.082L119.201 245.309L122.761 246.302L126.376 247.048L130.03 247.54L133.707 247.771L137.39 247.736L141.061 247.433L144.704 246.862L148.3 246.026L151.833 244.929L155.285 243.578L158.642 241.981L161.888 240.149L165.01 238.096L167.996 235.836L170.835 233.384L173.519 230.758L176.042 227.977L178.398 225.06L180.584 222.027L182.599 218.898L184.446 215.693L186.651 211.338L188.576 206.933L190.238 202.521L191.665 198.144L193.161 192.779L194.623 186.575L196.773 176.093L198.095 170.102L199.153 166.137L200.378 162.407L201.513 159.565L202.811 156.824L204.284 154.153L206.385 150.865L208.776 147.574L212.003 143.526L223.3 129.754L226.573 125.295" stroke="black" stroke-width="1.6" stroke-linecap="square"/>
<path d="M231.575 125L238.958 104.815L240.816 98.8603L242.169 93.8957L243.353 88.7617L244.324 83.4737L245.039 78.0533L245.383 73.9174L245.543 69.736L245.506 65.5241L245.257 61.2984L244.786 57.0766L244.082 52.8777L243.138 48.7211L241.949 44.6272L240.511 40.6163L238.823 36.7092L236.885 32.9261L234.703 29.2871L232.28 25.8113L229.625 22.517L226.748 19.4215L223.661 16.5403L220.377 13.8877L216.911 11.476L213.279 9.31559L209.501 7.41484L205.593 5.77993L201.577 4.41475L197.471 3.32092L193.296 2.49773L189.072 1.94215L184.819 1.64892L180.556 1.61053L176.303 1.81746L172.076 2.25816L167.892 2.91932L163.765 3.78601L159.711 4.84187L155.74 6.06934L150.591 7.94078L145.627 10.0385L140.859 12.3156L136.294 14.7249L130.87 17.8526L124.758 21.6643L114.502 28.4189L107.586 32.865L102.545 35.8526L98.3618 38.104L94.137 40.1504L89.8236 42.0188L84.4779 44.0829L76.995 46.6852L63.9524 51.183L58.7129 53.2147L53.417 55.5131L49.181 57.5817L44.9851 59.8806L40.8694 62.4289L37.8609 64.5121L34.94 66.7469L32.1258 69.135L29.4371 71.6759L26.8926 74.3674L24.5104 77.205L22.3081 80.1824L20.302 83.2917L18.5074 86.5228L16.9382 89.8641L15.6065 93.3028L14.5228 96.8244L13.6955 100.414L13.131 104.054L12.8337 107.728L12.8056 111.419L13.0463 115.109L13.5534 118.78L14.3221 122.415L15.3453 125.998L16.614 129.511L18.117 132.94L19.8413 136.27L21.7721 139.491L23.8933 142.589L26.1872 145.557L28.6352 148.385L31.2176 151.07L33.9144 153.608L37.6524 156.758L41.5085 159.646L45.4345 162.279L49.3843 164.671L54.2895 167.354L60.0298 170.19L68.1258 173.883L75.4035 177.271L79.7581 179.569L83.0958 181.609L85.5948 183.365L87.9636 185.259L90.2278 187.311L92.9559 190.12L95.6305 193.213L98.8652 197.293L109.163 210.603L112.751 214.784L115.86 218.122L119.194 221.405L122.76 224.585L126.559 227.614L129.557 229.758L132.677 231.769L135.913 233.628L139.256 235.317L142.696 236.818L146.22 238.116L149.815 239.196L153.465 240.045L157.156 240.653L160.871 241.01L164.591 241.11L168.299 240.949L171.977 240.524L175.608 239.836L179.173 238.887L182.655 237.68L186.038 236.224L189.307 234.527L192.448 232.598L195.448 230.452L198.297 228.101L200.984 225.561L203.503 222.849L205.848 219.981L208.015 216.976L210.003 213.853L211.813 210.63L213.448 207.326L214.911 203.959L216.608 199.402L218.032 194.806L219.21 190.206L220.17 185.636L221.117 180.005L221.973 173.425L223.155 161.98L224.053 154.163L224.915 148.523L225.82 143.917L226.922 139.347L228.236 134.758L230.082 129.152L231.461 125.31" stroke="black" stroke-width="3" stroke-linecap="square"/>
<circle cx="141.5" cy="125.5" r="29.5" stroke="black" stroke-width="4"/>
</svg>
